# xmcd
#
# Track frame offsets:
#	150
#	25940
#	46502
#	71025
#	99002
#	121435
#	142192
#	164367
#	187525
#	205600
#
# Disc length: 3022 seconds
#
# Revision: 3207918319
# Processed by: cddbd v1.5.2PL0 Copyright (c) Steve Scherf et al.
# Submitted via: EZCDAudioConverter 8.0.2.1
#
DISCID=7a0bcc0a
DTITLE=Thái Châu, Phi Nhung - Mưa Trên Phố Huế
DYEAR=1997
DGENRE=World Pop
TTITLE0=Phi Nhung - Mưa Trên Phố Huế
TTITLE1=Thái Châu - Bến Giang Đầu
TTITLE2=Phi Nhung - Vườn tao ngộ
TTITLE3=Thái Châu - Ngày vui qua mau
TTITLE4=Phi Nhung - Anh đi chẳng trở về
TTITLE5=Phi Nhung - Khuya anh đi rồi
TTITLE6=Thái Châu - Bảo em làm thinh
TTITLE7=Phi Nhung - Hai mùa mưa
TTITLE8=Thái Châu - Tìm mãi thương yêu
TTITLE9=Phi Nhung - Cánh buồm chuyển bến
EXTD=
EXTT0=
EXTT1=
EXTT2=
EXTT3=
EXTT4=
EXTT5=
EXTT6=
EXTT7=
EXTT8=
EXTT9=
PLAYORDER=
